<?xml version="1.0" encoding="utf-8"?>
<svg width="50px" height="50px" viewBox="0 0 50 50" version="1.1" xmlns:xlink="http://www.w3.org/1999/xlink" xmlns="http://www.w3.org/2000/svg">
  <defs>
    <path d="M50 0L50 0L50 50L0 50L0 0L50 0Z" id="path_1" />
    <clipPath id="clip_1">
      <use xlink:href="#path_1" />
    </clipPath>
  </defs>
  <g id="Github" clip-path="url(#clip_1)">
    <path d="M50 0L50 0L50 50L0 50L0 0L50 0Z" id="Github" fill="none" stroke="none" />
    <path d="M25 4.6875C13.782 4.6875 4.6875 13.782 4.6875 25C4.6875 34.5914 11.3375 42.625 20.2773 44.7547C19.8148 44.6445 19.3563 44.5211 18.9063 44.3805L18.9063 39.7266C18.9063 39.7266 18.1445 39.9805 17.1289 39.9805C14.2875 39.9805 13.107 37.4453 12.8125 36.1719C12.6336 35.3961 12.1664 34.6609 11.6648 34.2117C11.0656 33.6773 10.7852 33.6758 10.7813 33.493C10.7734 33.1094 11.2953 33.125 11.543 33.125C12.8125 33.125 13.775 34.4758 14.2219 35.1742C15.3289 36.8984 16.5172 37.1875 17.1289 37.1875C17.8906 37.1875 18.5484 37.0734 19.0016 36.8547C19.2109 35.3797 19.8672 34.0656 20.9375 33.125C16.1742 32.1727 12.8125 29.4406 12.8125 25C12.8125 22.7125 13.7305 20.6102 15.2602 18.9125C15.1039 18.4695 14.8438 17.5734 14.8438 16.1133C14.8438 15.1484 14.9109 13.9641 15.3516 12.8125C15.3516 12.8125 18.2484 12.8328 20.9805 15.4203C22.2414 15.0531 23.5906 14.8438 25 14.8438C26.4094 14.8438 27.7586 15.0531 29.0195 15.4203C31.7516 12.8328 34.6484 12.8125 34.6484 12.8125C35.0914 13.9641 35.1563 15.1484 35.1563 16.1133C35.1563 17.6875 34.9469 18.6055 34.8188 19.0016C36.3016 20.6836 37.1875 22.7531 37.1875 25C37.1875 29.4406 33.8258 32.1727 29.0625 33.125C30.3344 34.2422 31.0937 35.8695 31.0937 37.6953L31.0937 44.3805C30.6437 44.5219 30.1859 44.6445 29.7227 44.7547C38.6625 42.625 45.3125 34.5914 45.3125 25C45.3125 13.782 36.218 4.6875 25 4.6875L25 4.6875ZM26.4164 45.2578C25.9484 45.2906 25.4766 45.3125 25 45.3125C25.4766 45.3125 25.9477 45.2898 26.4164 45.2578L26.4164 45.2578ZM29.5203 44.8016C28.6109 45.0086 27.6789 45.1539 26.7273 45.2344C27.6789 45.1539 28.6109 45.0078 29.5203 44.8016L29.5203 44.8016ZM25 45.3125C24.5234 45.3125 24.0516 45.2906 23.5836 45.2578C24.0524 45.2898 24.5234 45.3125 25 45.3125L25 45.3125ZM23.2719 45.2344C22.3211 45.1539 21.3883 45.0086 20.4797 44.8016C21.3891 45.0078 22.3211 45.1539 23.2719 45.2344L23.2719 45.2344Z" id="Shape" fill="#331D2C" fill-rule="evenodd" stroke="none" />
  </g>
</svg>