<?xml version="1.0" encoding="utf-8"?>
<svg width="43px" height="43px" viewBox="0 0 43 43" version="1.1" xmlns:xlink="http://www.w3.org/1999/xlink" xmlns="http://www.w3.org/2000/svg">
  <path d="M21.5 0C9.6261 0 0 9.62616 0 21.5C0 33.3738 9.6261 43 21.5 43C33.3739 43 43 33.3738 43 21.5C43 9.62616 33.3739 0 21.5 0L21.5 0ZM21.5 3.90912C31.2151 3.90912 39.0909 11.7849 39.0909 21.5C39.0909 29.5515 33.6755 36.3246 26.2928 38.4133C26.2021 38.2264 26.1399 38.0217 26.1459 37.7891C26.1761 36.6076 26.1459 33.8503 26.1459 32.8379C26.1459 31.1003 25.0464 29.8679 25.0464 29.8679C25.0464 29.8679 33.67 29.9652 33.67 20.7632C33.67 17.2128 31.8148 15.3634 31.8148 15.3634C31.8148 15.3634 32.7894 11.5731 31.4769 9.96552C30.0061 9.80621 27.3718 11.3704 26.2471 12.1014C26.2471 12.1014 24.4651 11.3704 21.5 11.3704C18.5349 11.3704 16.7529 12.1014 16.7529 12.1014C15.6282 11.3704 12.9938 9.80719 11.5231 9.96552C10.2115 11.5731 11.1852 15.3634 11.1852 15.3634C11.1852 15.3634 9.32996 17.2109 9.32996 20.7613C9.32996 29.9633 17.9536 29.8679 17.9536 29.8679C17.9536 29.8679 16.9717 30.9857 16.8732 32.5878C16.297 32.7911 15.5114 33.0306 14.7622 33.0306C12.9542 33.0306 11.5807 31.2746 11.0764 30.4615C10.58 29.6592 9.56213 28.9861 8.61218 28.9861C7.98682 28.9861 7.68079 29.3002 7.68079 29.658C7.68079 30.0156 8.55859 30.2646 9.13708 30.9272C10.3568 32.3248 10.3341 35.4681 14.6801 35.4681C15.194 35.4681 16.1172 35.3498 16.8541 35.2486C16.8501 36.2352 16.8386 37.1815 16.8541 37.7872C16.8599 38.0205 16.7965 38.226 16.7052 38.4133C9.32349 36.324 3.90906 29.5508 3.90906 21.5C3.90906 11.7849 11.7849 3.90912 21.5 3.90912L21.5 3.90912Z" id="icon-github" fill="#FFFFFF" fill-rule="evenodd" stroke="none" />
</svg>