<?xml version="1.0" standalone="no"?>
<!DOCTYPE svg PUBLIC "-//W3C//DTD SVG 20010904//EN"
 "http://www.w3.org/TR/2001/REC-SVG-20010904/DTD/svg10.dtd">
<svg version="1.0" xmlns="http://www.w3.org/2000/svg"
 width="554.000000pt" height="618.000000pt" viewBox="0 0 554.000000 618.000000"
 preserveAspectRatio="xMidYMid meet">

<g transform="translate(0.000000,618.000000) scale(0.100000,-0.100000)"
fill="#000000" stroke="none">
<path d="M4252 5577 c-6 -7 -17 -39 -26 -72 -25 -95 -187 -569 -216 -630 -5
-11 -26 -60 -46 -110 -89 -218 -229 -509 -334 -690 -82 -143 -138 -235 -157
-261 -13 -17 -23 -35 -23 -39 0 -5 -17 -31 -38 -59 -21 -28 -48 -69 -60 -90
-25 -42 -232 -312 -335 -436 -34 -41 -143 -156 -242 -255 -173 -173 -211 -209
-305 -285 -23 -19 -50 -42 -59 -50 -9 -8 -35 -28 -56 -45 -22 -16 -47 -35 -55
-42 -277 -221 -712 -458 -1048 -569 -75 -25 -143 -47 -149 -49 -19 -6 -4 -35
18 -35 40 0 299 94 439 159 80 37 206 100 280 141 128 70 409 252 476 309 17
14 60 48 95 76 207 161 397 344 636 615 209 236 476 621 631 910 17 30 46 84
65 120 60 111 147 290 206 425 13 28 28 64 36 80 73 165 305 826 305 869 0 19
-26 27 -38 13z"/>
<path d="M3633 2231 c-929 -711 -1958 -1014 -2923 -860 -204 32 -461 104 -614
173 -71 32 -78 32 -74 4 2 -18 23 -31 107 -66 190 -77 458 -144 716 -176 179
-22 652 -16 835 12 591 90 1136 307 1685 671 180 120 372 260 379 278 3 6 -1
16 -8 22 -10 8 -35 -6 -103 -58z"/>
</g>
</svg>
