<?xml version="1.0" encoding="utf-8"?>
<svg width="42px" height="42px" viewBox="0 0 42 42" version="1.1" xmlns:xlink="http://www.w3.org/1999/xlink" xmlns="http://www.w3.org/2000/svg">
  <defs>
    <path d="M42 0L42 0L42 42L0 42L0 0L42 0Z" id="path_1" />
    <clipPath id="clip_1">
      <use xlink:href="#path_1" />
    </clipPath>
  </defs>
  <g id="Whatsapp" clip-path="url(#clip_1)">
    <path d="M42 0L42 0L42 42L0 42L0 0L42 0Z" id="Whatsapp" fill="none" stroke="none" />
    <path d="M33.3848 8.62398C29.7412 4.97873 24.7712 3.13948 19.5527 3.55948C12.537 4.12298 6.3875 9.00198 4.3295 15.7325C2.8595 20.5415 3.47725 25.5622 5.87125 29.7097L3.60325 37.24C3.38625 37.9627 4.046 38.6435 4.77575 38.4492L12.6577 36.337C15.211 37.73 18.0845 38.4632 21.0105 38.465L21.0175 38.465C28.3587 38.465 35.1418 33.9745 37.4885 27.0182C39.774 20.2352 38.0835 13.328 33.3848 8.62398L33.3848 8.62398ZM29.5715 27.2195C29.2075 28.2397 27.4242 29.2232 26.6228 29.295C25.8213 29.3685 25.0705 29.6572 21.3815 28.203C16.9418 26.453 14.1383 21.9012 13.9213 21.6107C13.7025 21.3185 12.138 19.243 12.138 17.094C12.138 14.945 13.2667 13.888 13.6675 13.4522C14.0682 13.0147 14.5407 12.9063 14.833 12.9063C15.1235 12.9063 15.4157 12.9063 15.6695 12.9167C15.981 12.929 16.3257 12.9447 16.653 13.671C17.0415 14.5355 17.8902 16.695 17.9987 16.9137C18.1072 17.1325 18.1807 17.388 18.0355 17.6785C17.8902 17.969 17.8167 18.151 17.5997 18.4065C17.381 18.662 17.1412 18.9753 16.9452 19.1713C16.7265 19.3883 16.499 19.6263 16.7528 20.062C17.0082 20.4995 17.8832 21.9293 19.1817 23.086C20.8512 24.5735 22.2565 25.0338 22.694 25.2543C23.1315 25.473 23.3853 25.4363 23.6408 25.144C23.8962 24.8535 24.7327 23.87 25.0232 23.4325C25.3138 22.995 25.606 23.0685 26.0068 23.2138C26.4075 23.359 28.5548 24.416 28.9905 24.6348C29.428 24.8535 29.7185 24.962 29.827 25.144C29.9355 25.3242 29.9355 26.1992 29.5715 27.2195L29.5715 27.2195Z" id="Shape" fill="#FFFFFF" fill-rule="evenodd" stroke="none" />
  </g>
</svg>